<svg width="170" height="184" viewBox="0 0 170 184" fill="none" xmlns="http://www.w3.org/2000/svg">
<path d="M78.8059 89.3714C76.6006 89.3714 74.4602 88.5926 72.709 87.0349C71.4766 85.9316 70.3091 84.5037 69.2065 82.8162C68.1687 81.1287 68.8173 78.922 70.5686 78.0134H70.6334C72.1901 77.2995 74.0062 77.8187 74.9142 79.3115C75.6277 80.4797 76.406 81.3884 77.1195 82.0374C78.2221 83.0109 79.4545 82.6215 79.9734 82.4268C80.3625 82.2321 81.6597 81.5182 81.6597 79.8307V74.249H88.3404V79.8307C88.3404 83.5951 86.2 86.97 82.6975 88.5277C81.4652 89.0469 80.1031 89.3714 78.8059 89.3714Z" fill="#102135"/>
<path d="M55.7152 43.5498C48.7103 43.5498 43.0674 49.1964 43.0674 56.2059C43.0674 63.2154 48.7103 68.862 55.7152 68.862C62.7202 68.862 68.3631 63.2154 68.3631 56.2059C68.3631 49.1964 62.7202 43.5498 55.7152 43.5498ZM55.7152 57.5039C53.0559 57.5039 50.9804 55.3622 50.9804 52.766C50.9804 50.105 53.1208 48.0281 55.7152 48.0281C58.3745 48.0281 60.4501 50.1699 60.4501 52.766C60.5149 55.3622 58.3745 57.5039 55.7152 57.5039Z" fill="#102135"/>
<path d="M48.7108 85.9966H42.6139C39.6303 85.9966 37.2305 83.5951 37.2305 80.6096C37.2305 77.6241 39.6303 75.2227 42.6139 75.2227H48.7108C51.6944 75.2227 54.0943 77.6241 54.0943 80.6096C54.1591 83.5302 51.6944 85.9966 48.7108 85.9966Z" fill="#102135"/>
<path d="M26.8521 39.9799C25.1657 39.0713 23.7387 37.903 22.5712 36.4103C20.2363 33.4896 19.1336 29.8551 19.5877 26.0907C19.9768 22.3912 21.7929 19.0163 24.7765 16.6798C30.8086 11.812 39.6296 12.7856 44.4942 18.8216C45.9211 20.6389 47.0886 23.1701 47.5426 25.5066L40.862 26.7397C40.6674 25.5066 39.9539 24.0138 39.2405 23.1052C38.0081 21.6124 36.3217 20.6389 34.3759 20.4441C32.4301 20.2494 30.5491 20.7687 29.0573 22.0018C27.5655 23.235 26.5926 24.9224 26.398 26.8695C26.2034 28.8166 26.7223 30.6988 27.9547 32.1916C28.5384 32.9704 29.3168 33.5545 30.16 34.0089L26.8521 39.9799Z" fill="#102135"/>
<path d="M87.3675 134.998C86.0702 136.296 83.9298 136.296 82.5678 134.998L68.6227 121.044C65.7688 118.188 64.5365 114.164 65.3148 110.011C65.5743 108.518 66.2229 107.09 67.0661 105.857C69.401 102.352 73.163 100.405 77.1843 100.405C80.1031 100.405 82.8272 101.443 85.0325 103.261C87.8215 100.859 91.4537 99.8857 95.2156 100.6C96.7074 100.859 98.1343 101.443 99.4316 102.352C102.934 104.689 104.88 108.453 104.88 112.477C104.88 115.722 103.648 118.708 101.313 121.044L87.3675 134.998ZM77.5086 107.155C75.952 107.09 74.4602 107.609 73.3575 108.713C71.282 110.789 71.282 114.229 73.3575 116.306L84.9676 127.924L96.5777 116.306C98.6532 114.229 98.6532 110.789 96.5777 108.713C94.5021 106.636 91.0645 106.636 88.989 108.713L86.654 111.049C85.6811 112.023 84.1893 112.023 83.2164 111.049L81.0111 108.842C80.1031 107.869 78.8707 107.22 77.5086 107.155Z" fill="#102135"/>
<path d="M91.1947 89.3714C89.8975 89.3714 88.5354 89.1118 87.303 88.5277C83.8654 86.97 81.6602 83.66 81.6602 79.8307V74.249H88.3408V79.8307C88.3408 81.5182 89.638 82.2321 90.0272 82.4268C90.4812 82.6215 91.7136 83.0109 92.8811 82.0374C93.5945 81.3884 94.3729 80.4797 95.0863 79.3115C95.9944 77.8836 97.8105 77.2995 99.3671 78.0134H99.432C101.248 78.8571 101.897 81.1287 100.794 82.8162C99.6914 84.5686 98.5239 85.9316 97.2916 87.0349C95.5404 88.5277 93.3351 89.3714 91.1947 89.3714Z" fill="#102135"/>
<path d="M88.9243 64.9678H85.0327H81.141C77.6385 64.9678 75.9522 69.3163 78.4817 71.6528L85.0327 77.7537L91.5836 71.6528C94.1132 69.2514 92.4268 64.9678 88.9243 64.9678Z" fill="#102135"/>
<path d="M114.22 43.5498C107.215 43.5498 101.572 49.1964 101.572 56.2059C101.572 63.2154 107.215 68.862 114.22 68.862C121.225 68.862 126.868 63.2154 126.868 56.2059C126.868 49.1964 121.225 43.5498 114.22 43.5498ZM114.22 57.5039C111.561 57.5039 109.485 55.3622 109.485 52.766C109.485 50.105 111.626 48.0281 114.22 48.0281C116.815 48.0281 118.955 50.1699 118.955 52.766C119.02 55.3622 116.879 57.5039 114.22 57.5039Z" fill="#102135"/>
<path d="M121.224 85.9966H127.321C130.305 85.9966 132.705 83.5951 132.705 80.6096C132.705 77.6241 130.305 75.2227 127.321 75.2227H121.224C118.241 75.2227 115.841 77.6241 115.841 80.6096C115.841 83.5302 118.241 85.9966 121.224 85.9966Z" fill="#102135"/>
<path d="M49.554 37.3192C50.3972 38.8769 52.2133 39.461 53.7699 38.812C55.8455 37.9682 57.8561 37.5788 59.4128 37.3841C61.0992 37.1894 62.3315 35.7615 62.3315 34.0741V33.8144C62.3315 31.8025 60.5154 30.2448 58.5048 30.5693C55.586 31.0236 53.0565 31.8674 51.1755 32.6462C49.3594 33.425 48.5811 35.6317 49.554 37.3192Z" fill="#102135"/>
<path d="M120.381 37.3192C119.538 38.8769 117.722 39.461 116.165 38.812C114.09 37.9682 112.079 37.5788 110.522 37.3841C108.836 37.1894 107.604 35.7615 107.604 34.0741V33.8144C107.604 31.8025 109.42 30.2448 111.43 30.5693C114.349 31.0236 116.879 31.8674 118.76 32.6462C120.576 33.425 121.354 35.6317 120.381 37.3192Z" fill="#102135"/>
<path d="M49.9424 138.957C37.1648 138.957 28.6681 133.375 24.5818 129.936C23.0252 128.573 23.0252 126.171 24.6467 124.808C25.8791 123.77 27.6952 123.77 28.9275 124.808C32.4949 127.859 40.8619 133.375 53.8989 132.012C60.2553 131.363 64.7955 129.157 67.3251 125.522C68.4277 123.964 68.5574 122.017 67.7142 120.265C66.871 118.578 65.3144 117.474 63.4334 117.344C42.0942 115.917 27.2411 109.296 19.2633 97.6788C11.1557 85.9313 10.1828 69.5758 16.4094 49.0664L22.8306 51.0135C17.2526 69.4459 17.9012 83.8544 24.7764 93.8495C31.5868 103.715 44.7535 109.361 63.8875 110.659C68.2331 110.984 71.9302 113.45 73.7463 117.344C75.6272 121.239 75.3029 125.717 72.7734 129.287C69.0763 134.609 62.9145 137.789 54.4826 138.633C52.9908 138.892 51.4342 138.957 49.9424 138.957Z" fill="#102135"/>
<path d="M119.992 138.957C118.5 138.957 117.009 138.892 115.387 138.697C107.02 137.854 100.858 134.738 97.0964 129.351C94.6317 125.782 94.2426 121.303 96.1235 117.409C98.0045 113.515 101.702 110.984 105.982 110.724C125.181 109.426 138.348 103.78 145.093 93.9144C151.969 83.9194 152.617 69.5109 147.039 51.0784L153.46 49.1313C159.687 69.6407 158.714 85.9963 150.607 97.7437C142.564 109.361 127.711 115.981 106.436 117.409C104.555 117.539 102.934 118.642 102.156 120.33C101.312 122.017 101.507 124.029 102.545 125.587C105.074 129.287 109.615 131.428 115.971 132.077C129.008 133.375 137.375 127.924 140.942 124.873C142.175 123.835 143.991 123.835 145.223 124.873C146.845 126.171 146.845 128.638 145.288 130C141.331 133.375 132.77 138.957 119.992 138.957Z" fill="#102135"/>
<path d="M153.136 48.2228C154.887 46.9248 156.444 45.3671 157.871 43.6147C167.146 32.062 165.265 15.1872 153.785 5.90608C148.207 1.42778 141.202 -0.649119 134.067 0.129717C126.932 0.908553 120.576 4.41331 116.101 9.99497C114.155 12.4613 112.598 15.1872 111.625 18.1727C103.258 15.3819 94.3075 13.8892 84.9676 13.8892C75.6925 13.8892 66.7417 15.3819 58.3098 18.1727C57.272 15.2521 55.7802 12.4613 53.8344 9.99497C49.359 4.41331 42.9378 0.908553 35.868 0.129717C28.7333 -0.649119 21.7283 1.42778 16.1503 5.90608C4.66997 15.1872 2.85387 32.1269 12.0641 43.6147C13.4262 45.3671 15.0477 46.8599 16.7989 48.2228C6.22663 62.3717 0 79.9604 0 98.9121C0 145.772 38.1381 183.935 84.9676 183.935C131.797 183.935 169.935 145.772 169.935 98.9121C170 79.9604 163.709 62.3717 153.136 48.2228ZM121.29 14.2137C124.662 9.99497 129.462 7.39885 134.781 6.81473C140.099 6.2306 145.353 7.78827 149.569 11.1632C158.195 18.1078 159.557 30.8288 152.617 39.4609C151.515 40.8239 150.282 41.9922 148.92 43.0306C140.488 33.3601 129.851 25.6366 117.852 20.5742C118.63 18.2377 119.798 16.0959 121.29 14.2137ZM20.3663 11.1632C24.5822 7.78827 29.8359 6.2306 35.1545 6.81473C40.4731 7.39885 45.2728 9.99497 48.6456 14.2137C50.1373 16.0959 51.3048 18.2377 52.0832 20.5093C40.0839 25.5717 29.5116 33.2951 21.0149 42.9657C19.6528 41.9272 18.4204 40.759 17.3178 39.396C10.3777 30.7639 11.7398 18.1078 20.3663 11.1632ZM60.3205 173.291C51.5643 170.37 43.4567 165.957 36.3869 160.31C38.5273 156.935 43.3918 151.159 51.4994 152.911C59.2827 154.664 60.3205 166.801 60.3205 173.291ZM118.436 152.976C126.478 151.224 131.408 157 133.548 160.375C126.478 166.022 118.371 170.435 109.615 173.356C109.615 166.801 110.717 154.664 118.436 152.976ZM138.672 155.897C134.845 150.315 127.451 144.149 117.009 146.421C103.453 149.407 102.675 167.904 102.934 175.173C97.1614 176.536 91.1942 177.25 84.9676 177.25C78.8058 177.25 72.7737 176.536 67.0011 175.173C67.2606 167.904 66.4823 149.407 52.9264 146.421C42.4838 144.149 35.0897 150.315 31.2629 155.897C16.1503 141.618 6.68066 121.369 6.68066 98.9121C6.68066 55.7516 41.8352 20.5742 84.9676 20.5742C128.165 20.5742 163.254 55.6867 163.254 98.9121C163.254 121.369 153.785 141.618 138.672 155.897Z" fill="#102135"/>
<path d="M143.083 39.9799L139.84 34.0089C140.683 33.5545 141.461 32.9055 142.045 32.1916C143.277 30.6988 143.796 28.8166 143.602 26.8695C143.407 24.9224 142.434 23.235 140.942 22.0018C139.451 20.7687 137.57 20.2494 135.624 20.4441C133.678 20.6389 131.992 21.6124 130.759 23.1052C130.046 24.0138 129.332 25.5715 129.138 26.7397L122.457 25.5066C122.911 23.1701 124.079 20.6389 125.505 18.8216C130.37 12.7856 139.191 11.812 145.223 16.6798C148.142 19.0163 149.958 22.3912 150.412 26.0907C150.801 29.7902 149.763 33.4896 147.364 36.4103C146.196 37.903 144.769 39.0713 143.083 39.9799Z" fill="#102135"/>
<g clip-path="url(#clip0_899_887)">
<path d="M122 81C117.583 81 114 77.4727 114 73.125C114 69.3844 119.425 62.3666 120.942 60.4799C121.192 60.1723 121.563 60 121.963 60H122.037C122.438 60 122.808 60.1723 123.058 60.4799C124.575 62.3666 130 69.3844 130 73.125C130 77.4727 126.417 81 122 81ZM118 73.7812C118 73.4203 117.7 73.125 117.333 73.125C116.967 73.125 116.667 73.4203 116.667 73.7812C116.667 76.3201 118.754 78.375 121.333 78.375C121.7 78.375 122 78.0797 122 77.7188C122 77.3578 121.7 77.0625 121.333 77.0625C119.492 77.0625 118 75.5941 118 73.7812Z" fill="#4151FF"/>
</g>
<path d="M73.6031 120.156L83.4852 129.403C83.8953 129.786 84.4367 130 85 130C85.5633 130 86.1047 129.786 86.5148 129.403L96.3969 120.156C98.0594 118.604 99 116.428 99 114.153V113.836C99 110.004 96.2383 106.737 92.4703 106.107C89.9766 105.69 87.4391 106.507 85.6562 108.294L85 108.952L84.3438 108.294C82.5609 106.507 80.0234 105.69 77.5297 106.107C73.7617 106.737 71 110.004 71 113.836V114.153C71 116.428 71.9406 118.604 73.6031 120.156Z" fill="#BB0000"/>
<defs>
<clipPath id="clip0_899_887">
<rect width="16" height="21" fill="white" transform="translate(114 60)"/>
</clipPath>
</defs>
</svg>
