<svg width="262" height="284" viewBox="0 0 262 284" fill="none" xmlns="http://www.w3.org/2000/svg">
<path d="M230.9 16.8474C224.3 11.5474 216.1 9.14742 207.8 10.0474C199.4 10.9474 191.9 15.0474 186.7 21.6474C184.3 24.5474 182.5 27.9474 181.3 31.5474L181.2 31.9474L181.6 32.1474C199.8 39.8474 216.3 51.7474 229.3 66.6474L229.6 66.9474L229.9 66.6474C232.1 65.0474 234 63.1474 235.7 61.0474C246.6 47.5474 244.4 27.7474 230.9 16.8474Z" fill="#FEFEFC"/>
<path d="M80.8999 31.9475L80.7999 31.5475C79.5999 27.9475 77.7999 24.6475 75.3999 21.6475C70.0999 15.1475 62.5999 11.0475 54.2999 10.1475C45.8999 9.24752 37.6999 11.6475 31.1999 16.9475C17.5999 27.7475 15.4999 47.5475 26.2999 61.0475C27.9999 63.1475 29.8999 65.0475 32.0999 66.6475L32.3999 66.9475L32.6999 66.6475C45.7999 51.7475 62.1999 39.8475 80.3999 32.1475L80.8999 31.9475Z" fill="#FEFEFC"/>
<path d="M79.5 235.247C66.9 232.447 59.2 241.347 55.7 246.847L55.5 247.247L55.8 247.547C66.9 256.347 79.4 263.147 92.8 267.547L93.4 267.747V267.047C93.5 256.347 91.7 237.947 79.5 235.247Z" fill="#FEFEFC"/>
<path d="M182.5 235.247C170.3 237.947 168.5 256.347 168.5 267.047V267.747L169.1 267.547C182.5 263.047 195 256.347 206.1 247.547L206.4 247.247L206.2 246.847C202.8 241.347 195.1 232.547 182.5 235.247Z" fill="#FEFEFC"/>
<path d="M214.3 240.847C208.3 232.147 196.9 222.547 180.7 226.147C159.7 230.747 158.5 259.447 158.8 270.747C149.9 272.847 140.5 273.947 131 273.947C121.4 273.947 112.1 272.847 103.2 270.747C103.6 259.447 102.4 230.747 81.3 226.147C65.1 222.547 53.6 232.147 47.7 240.847C24.2 218.647 9.5 187.247 9.5 152.547C9.6 85.5474 64 31.0474 131 31.0474C198 31.0474 252.5 85.5474 252.5 152.547C252.5 187.247 237.8 218.647 214.3 240.847Z" fill="#FEFEFC"/>
<path d="M189.7 209.547C172.4 210.547 154.1 193.347 151.7 190.447C149.3 187.547 131 204.447 131 204.447C131 204.447 112.7 187.547 110.3 190.447C107.9 193.347 89.5998 210.547 72.2998 209.547C54.9998 208.547 60.3998 220.247 66.8998 227.247C73.3998 234.247 75.3998 227.247 75.3998 227.247C75.3998 227.247 107.2 225.247 115.4 204.947L125.3 214.947C128.4 218.147 133.5 218.147 136.7 214.947L146.6 204.947C154.9 225.247 186.6 227.247 186.6 227.247C186.6 227.247 188.6 234.247 195.1 227.247C201.6 220.247 207 208.647 189.7 209.547Z" fill="#D6CDC2"/>
<path d="M134.8 26.6475V48.6475C134.8 69.3475 149.1 87.4475 169.3 92.1475C194.5 97.9475 226.5 109.647 239.8 132.547C239.8 132.547 244.3 108.847 240.3 89.9475C236.2 71.0475 188.2 31.3475 134.8 26.6475Z" fill="#E5AE6C"/>
<path d="M193.2 27.2474C201.1 17.4474 215.5 15.8474 225.3 23.7474C235.1 31.6474 236.7 46.0474 228.8 55.8474C226.8 58.3474 224.4 60.2474 221.8 61.6474L188.5 37.3474C189.2 33.7474 190.8 30.3474 193.2 27.2474Z" fill="#C6654C"/>
<path d="M223.6 31.047C215 24.147 202.4 25.447 195.5 34.147C194 35.947 192.9 37.947 192.2 40.047L188.6 37.4471C189.3 33.8471 190.8 30.347 193.3 27.347C201.2 17.547 215.6 15.947 225.4 23.847C235.2 31.747 236.8 46.1471 228.9 55.9471C228.9 56.0471 228.8 56.0471 228.8 56.0471C233.2 47.7471 231.2 37.147 223.6 31.047Z" fill="#EAB66E"/>
<path d="M121.5 137.747C118.1 137.747 114.8 136.547 112.1 134.147C110.2 132.447 108.4 130.247 106.7 127.647C105.1 125.047 106.1 121.647 108.8 120.247H108.9C111.3 119.147 114.1 119.947 115.5 122.247C116.6 124.047 117.8 125.447 118.9 126.447C120.6 127.947 122.5 127.347 123.3 127.047C123.9 126.747 125.9 125.647 125.9 123.047V114.447H136.2V123.047C136.2 128.847 132.9 134.047 127.5 136.447C125.6 137.247 123.5 137.747 121.5 137.747Z" fill="#102135"/>
<path d="M85.9004 106.147C96.6699 106.147 105.4 97.417 105.4 86.6475C105.4 75.8779 96.6699 67.1475 85.9004 67.1475C75.1308 67.1475 66.4004 75.8779 66.4004 86.6475C66.4004 97.417 75.1308 106.147 85.9004 106.147Z" fill="#102135"/>
<path d="M85.8996 88.6474C89.9313 88.6474 93.1996 85.379 93.1996 81.3474C93.1996 77.3157 89.9313 74.0474 85.8996 74.0474C81.8679 74.0474 78.5996 77.3157 78.5996 81.3474C78.5996 85.379 81.8679 88.6474 85.8996 88.6474Z" fill="white"/>
<path d="M75.1004 132.547H65.7004C61.1004 132.547 57.4004 128.847 57.4004 124.247C57.4004 119.647 61.1004 115.947 65.7004 115.947H75.1004C79.7004 115.947 83.4004 119.647 83.4004 124.247C83.5004 128.747 79.7004 132.547 75.1004 132.547Z" fill="#FF9F83"/>
<path d="M68.7996 27.2474C60.8996 17.4474 46.4996 15.8474 36.6996 23.7474C26.8996 31.6474 25.2996 46.0474 33.1996 55.8474C35.1996 58.3474 37.5996 60.2474 40.1996 61.6474L73.4996 37.3474C72.7996 33.7474 71.2996 30.3474 68.7996 27.2474Z" fill="#C6654C"/>
<path d="M38.4 31.047C47 24.147 59.6 25.447 66.5 34.147C68 35.947 69.1 37.947 69.8 40.047L73.4 37.4471C72.7 33.8471 71.2 30.347 68.7 27.347C60.8 17.547 46.4 15.947 36.6 23.847C26.8 31.747 25.2 46.1471 33.1 55.9471C33.1 56.0471 33.2 56.0471 33.2 56.0471C28.9 47.7471 30.8 37.147 38.4 31.047Z" fill="#EAB66E"/>
<path d="M103.2 201.547C102.5 202.047 101.9 202.447 101.2 202.847C100.8 203.047 100.4 203.347 99.9996 203.547C99.4996 203.847 99.0996 204.047 98.5996 204.347C98.5996 204.347 98.5996 204.347 98.4996 204.347C82.1996 212.647 63.7996 207.447 63.7996 207.447C62.4996 215.347 65.0996 223.247 66.8996 227.247C67.6996 228.947 68.1996 230.047 68.1996 230.047C57.1996 232.847 47.8996 247.047 47.8996 247.047L32.4996 230.947C-3.20039 186.247 5.19961 139.147 8.39961 124.147C11.5996 109.247 25.5996 91.6475 25.5996 91.6475C25.5996 91.6475 10.2996 134.847 34.7996 161.747C59.3996 188.647 88.1996 185.747 88.1996 185.747C88.1996 185.847 88.1996 191.747 93.9996 196.647C95.9996 198.447 98.7996 200.047 102.5 201.247C102.7 201.347 103 201.447 103.2 201.547Z" fill="#E3B378"/>
<path d="M19.3004 106.147C19.3004 106.147 -3.09958 196.547 60.0004 234.247L48.0004 247.047C48.0004 247.047 -19.4996 187.347 19.3004 106.147Z" fill="#A96545"/>
<path d="M102.4 201.247C102.2 201.747 101.9 202.347 101.2 202.847C100.9 203.047 100.5 203.347 100 203.547C99.6004 203.747 99.1004 204.047 98.6004 204.347C98.6004 204.347 98.6004 204.347 98.5004 204.347C82.2004 212.647 63.8004 207.447 63.8004 207.447C62.5004 215.347 65.1004 223.247 66.9004 227.247C66.5004 227.147 41.0004 220.747 37.9004 196.647L43.2004 191.847C43.2004 191.847 69.6004 203.947 93.9004 196.647C96.0004 198.447 98.7004 200.047 102.4 201.247Z" fill="#B7794C"/>
<path d="M89.8998 269.347C90.0998 274.247 65.9998 259.147 60.7998 255.847C60.1998 255.447 59.7998 255.247 59.7998 255.247C59.7998 255.247 62.3998 242.647 75.3998 244.147C81.6998 244.847 85.2998 249.547 87.1998 254.847C89.3998 260.347 89.7998 266.447 89.8998 269.347Z" fill="#EEA688"/>
<path d="M89.8998 269.347C90.0998 274.247 65.9998 259.147 60.7998 255.847C61.4998 255.647 62.7998 255.747 64.6998 256.147C75.7998 258.447 83.6998 256.247 87.1998 254.747C89.3998 260.347 89.7998 266.447 89.8998 269.347Z" fill="#C26A53"/>
<path d="M140.6 137.747C138.6 137.747 136.5 137.347 134.6 136.447C129.3 134.047 125.9 128.947 125.9 123.047V114.447H136.2V123.047C136.2 125.647 138.2 126.747 138.8 127.047C139.5 127.347 141.4 127.947 143.2 126.447C144.3 125.447 145.5 124.047 146.6 122.247C148 120.047 150.8 119.147 153.2 120.247H153.3C156.1 121.547 157.1 125.047 155.4 127.647C153.7 130.347 151.9 132.447 150 134.147C147.3 136.447 143.9 137.747 140.6 137.747Z" fill="#102135"/>
<path d="M137.1 100.147H131.1H125.1C119.7 100.147 117.1 106.847 121 110.447L131.1 119.847L141.2 110.447C145.1 106.747 142.5 100.147 137.1 100.147Z" fill="#102135"/>
<path d="M176.1 106.147C186.869 106.147 195.6 97.417 195.6 86.6475C195.6 75.8779 186.869 67.1475 176.1 67.1475C165.33 67.1475 156.6 75.8779 156.6 86.6475C156.6 97.417 165.33 106.147 176.1 106.147Z" fill="#102135"/>
<path d="M176.1 88.6474C180.131 88.6474 183.4 85.379 183.4 81.3474C183.4 77.3157 180.131 74.0474 176.1 74.0474C172.068 74.0474 168.8 77.3157 168.8 81.3474C168.8 85.379 172.068 88.6474 176.1 88.6474Z" fill="white"/>
<path d="M186.9 132.547H196.3C200.9 132.547 204.6 128.847 204.6 124.247C204.6 119.647 200.9 115.947 196.3 115.947H186.9C182.3 115.947 178.6 119.647 178.6 124.247C178.6 128.747 182.3 132.547 186.9 132.547Z" fill="#FF9F83"/>
<path d="M158.8 201.547C159.5 202.047 160.1 202.447 160.8 202.847C161.2 203.047 161.6 203.347 162 203.547C162.5 203.847 162.9 204.047 163.4 204.347C163.4 204.347 163.4 204.347 163.5 204.347C179.8 212.647 198.2 207.447 198.2 207.447C199.5 215.347 196.9 223.247 195.1 227.247C194.3 228.947 193.8 230.047 193.8 230.047C204.8 232.847 214.1 247.047 214.1 247.047L229.5 230.947C265.3 186.247 256.9 139.147 253.7 124.247C250.5 109.347 236.5 91.7471 236.5 91.7471C236.5 91.7471 251.8 134.947 227.3 161.847C202.7 188.747 173.9 185.847 173.9 185.847C173.9 185.947 173.9 191.847 168.1 196.747C166.1 198.547 163.3 200.147 159.6 201.347C159.4 201.347 159.1 201.447 158.8 201.547Z" fill="#E3B378"/>
<path d="M242.8 106.147C242.8 106.147 265.2 196.547 202.1 234.247L214 247.047C214.1 247.047 281.5 187.347 242.8 106.147Z" fill="#A96545"/>
<path d="M159.6 201.247C159.8 201.747 160.1 202.347 160.8 202.847C161.1 203.047 161.5 203.347 162 203.547C162.4 203.747 162.9 204.047 163.4 204.347C163.4 204.347 163.4 204.347 163.5 204.347C179.8 212.647 198.2 207.447 198.2 207.447C199.5 215.347 196.9 223.247 195.1 227.247C195.5 227.147 221 220.747 224.1 196.647L218.8 191.847C218.8 191.847 192.4 203.947 168.1 196.647C166.1 198.447 163.3 200.047 159.6 201.247Z" fill="#B7794C"/>
<path d="M172.1 269.347C171.9 274.247 196 259.147 201.2 255.847C201.8 255.447 202.2 255.247 202.2 255.247C202.2 255.247 199.6 242.647 186.6 244.147C180.3 244.847 176.7 249.547 174.8 254.847C172.6 260.347 172.2 266.447 172.1 269.347Z" fill="#EEA688"/>
<path d="M172.1 269.347C171.9 274.247 196 259.147 201.2 255.847C200.5 255.647 199.2 255.747 197.3 256.147C186.2 258.447 178.3 256.247 174.8 254.747C172.6 260.347 172.2 266.447 172.1 269.347Z" fill="#C26A53"/>
<path d="M168.1 239.247C168.1 239.247 151.5 251.947 131 251.947C110.5 251.947 93.9004 239.247 93.9004 239.247C93.9004 239.247 100.2 264.447 99.5004 274.347C99.5004 274.347 115.6 278.347 131 278.347C146.4 278.347 162.5 274.347 162.5 274.347C161.9 264.547 168.1 239.247 168.1 239.247Z" fill="#D6CDC2"/>
<path d="M76.3999 57.5472C77.6999 59.9472 80.4999 60.8472 82.8999 59.8472C86.0999 58.5472 89.1999 57.9472 91.5999 57.6472C94.1999 57.3472 96.0999 55.1472 96.0999 52.5472V52.1472C96.0999 49.0472 93.2999 46.6472 90.1999 47.1472C85.6999 47.8472 81.7999 49.1472 78.8999 50.3472C76.0999 51.5472 74.8999 54.9472 76.3999 57.5472Z" fill="#102135"/>
<path d="M185.6 57.5472C184.3 59.9472 181.5 60.8472 179.1 59.8472C175.9 58.5472 172.8 57.9472 170.4 57.6472C167.8 57.3472 165.9 55.1472 165.9 52.5472V52.1472C165.9 49.0472 168.7 46.6472 171.8 47.1472C176.3 47.8472 180.2 49.1472 183.1 50.3472C185.9 51.5472 187.1 54.9472 185.6 57.5472Z" fill="#102135"/>
<path d="M76.9996 214.147C57.2996 214.147 44.1996 205.547 37.8996 200.247C35.4996 198.147 35.4996 194.447 37.9996 192.347C39.8996 190.747 42.6996 190.747 44.5996 192.347C50.0996 197.047 62.9996 205.547 83.0996 203.447C92.8996 202.447 99.8996 199.047 103.8 193.447C105.5 191.047 105.7 188.047 104.4 185.347C103.1 182.747 100.7 181.047 97.7996 180.847C64.8996 178.647 41.9996 168.447 29.6996 150.547C17.1996 132.447 15.6996 107.247 25.2996 75.6475L35.1996 78.6475C26.5996 107.047 27.5996 129.247 38.1996 144.647C48.6996 159.847 68.9996 168.547 98.4996 170.547C105.2 171.047 110.9 174.847 113.7 180.847C116.6 186.847 116.1 193.747 112.2 199.247C106.5 207.447 96.9996 212.347 83.9996 213.647C81.6996 214.047 79.2996 214.147 76.9996 214.147Z" fill="#102135"/>
<path d="M185 214.147C182.7 214.147 180.4 214.047 177.9 213.747C165 212.447 155.5 207.647 149.7 199.347C145.9 193.847 145.3 186.947 148.2 180.947C151.1 174.947 156.8 171.047 163.4 170.647C193 168.647 213.3 159.947 223.7 144.747C234.3 129.347 235.3 107.147 226.7 78.7471L236.6 75.7471C246.2 107.347 244.7 132.547 232.2 150.647C219.8 168.547 196.9 178.747 164.1 180.947C161.2 181.147 158.7 182.847 157.5 185.447C156.2 188.047 156.5 191.147 158.1 193.547C162 199.247 169 202.547 178.8 203.547C198.9 205.547 211.8 197.147 217.3 192.447C219.2 190.847 222 190.847 223.9 192.447C226.4 194.447 226.4 198.247 224 200.347C217.9 205.547 204.7 214.147 185 214.147Z" fill="#102135"/>
<path d="M236.1 74.3473C238.8 72.3473 241.2 69.9473 243.4 67.2473C257.7 49.4473 254.8 23.4473 237.1 9.14726C228.5 2.24726 217.7 -0.952741 206.7 0.247259C195.7 1.44726 185.9 6.84726 179 15.4473C176 19.2473 173.6 23.4473 172.1 28.0473C159.2 23.7473 145.4 21.4473 131 21.4473C116.7 21.4473 102.9 23.7473 89.9 28.0473C88.3 23.5473 86 19.2473 83 15.4473C76.1 6.84726 66.2 1.44726 55.3 0.247259C44.3 -0.952741 33.5 2.24726 24.9 9.14726C7.2 23.4473 4.4 49.5473 18.6 67.2473C20.7 69.9473 23.2 72.2473 25.9 74.3473C9.6 96.1473 0 123.247 0 152.447C0 224.647 58.8 283.447 131 283.447C203.2 283.447 262 224.647 262 152.447C262.1 123.247 252.4 96.1473 236.1 74.3473ZM187 21.9473C192.2 15.4473 199.6 11.4473 207.8 10.5473C216 9.64726 224.1 12.0473 230.6 17.2473C243.9 27.9473 246 47.5473 235.3 60.8473C233.6 62.9473 231.7 64.7473 229.6 66.3473C216.6 51.4473 200.2 39.5473 181.7 31.7473C182.9 28.1473 184.7 24.8473 187 21.9473ZM31.4 17.2473C37.9 12.0473 46 9.64726 54.2 10.5473C62.4 11.4473 69.8 15.4473 75 21.9473C77.3 24.8473 79.1 28.1473 80.3 31.6473C61.8 39.4473 45.5 51.3473 32.4 66.2473C30.3 64.6473 28.4 62.8473 26.7 60.7473C16 47.4473 18.1 27.9473 31.4 17.2473ZM93 267.047C79.5 262.547 67 255.747 56.1 247.047C59.4 241.847 66.9 232.947 79.4 235.647C91.4 238.347 93 257.047 93 267.047ZM182.6 235.747C195 233.047 202.6 241.947 205.9 247.147C195 255.847 182.5 262.647 169 267.147C169 257.047 170.7 238.347 182.6 235.747ZM213.8 240.247C207.9 231.647 196.5 222.147 180.4 225.647C159.5 230.247 158.3 258.747 158.7 269.947C149.8 272.047 140.6 273.147 131 273.147C121.5 273.147 112.2 272.047 103.3 269.947C103.7 258.747 102.5 230.247 81.6 225.647C65.5 222.147 54.1 231.647 48.2 240.247C24.9 218.247 10.3 187.047 10.3 152.447C10.3 85.9473 64.5 31.7473 131 31.7473C197.6 31.7473 251.7 85.8473 251.7 152.447C251.7 187.047 237.1 218.247 213.8 240.247Z" fill="#102135"/>
<path d="M103.415 184.799L127.767 207.531C128.778 208.474 130.112 209 131.5 209C132.888 209 134.222 208.474 135.233 207.531L159.585 184.799C163.682 180.986 166 175.636 166 170.044V169.262C166 159.843 159.194 151.812 149.909 150.263C143.764 149.239 137.511 151.246 133.117 155.639L131.5 157.256L129.883 155.639C125.489 151.246 119.236 149.239 113.091 150.263C103.806 151.812 97 159.843 97 169.262V170.044C97 175.636 99.318 180.986 103.415 184.799Z" fill="#BB0000"/>
</svg>
